<?xml version="1.0" encoding="iso-8859-1"?>
<!-- Generator: Adobe Illustrator 19.0.0, SVG Export Plug-In . SVG Version: 6.00 Build 0)  -->
<svg version="1.1" id="Capa_1" xmlns="http://www.w3.org/2000/svg" xmlns:xlink="http://www.w3.org/1999/xlink" x="0px" y="0px"
	 viewBox="0 0 512.001 512.001" style="enable-background:new 0 0 512.001 512.001;" xml:space="preserve">
<path style="fill:#FBC640;" d="M369.469,244.064c-14.338,0-27.818-5.587-37.961-15.73c-10.144-10.143-15.73-23.628-15.73-37.972
	c0-14.348,5.587-27.83,15.731-37.963c10.142-10.143,23.624-15.728,37.96-15.728c29.606,0,53.692,24.086,53.692,53.691
	C423.16,219.973,399.074,244.064,369.469,244.064z"/>
<path style="fill:#EFEFEF;" d="M167.028,503.962c-0.493,0-0.987-0.003-1.482-0.01c-27.07-0.377-52.644-11.176-72.011-30.412
	c-19.368-19.236-30.339-44.733-30.895-71.798c-0.733-35.626,16.391-68.688,45.865-88.664V66.572
	c0-15.628,6.086-30.327,17.135-41.387c11.058-11.058,25.757-17.147,41.39-17.147s30.33,6.09,41.387,17.145
	c11.051,11.051,17.137,25.75,17.137,41.388V313.08c28.754,19.493,45.885,51.737,45.885,86.472
	C271.439,457.124,224.599,503.962,167.028,503.962z M165.775,48.105c-10.183,0-18.467,8.284-18.467,18.467v268.009l-17.015,11.287
	c-18.525,12.277-29.309,32.856-28.851,55.05c0.7,34.248,29.145,62.498,63.405,62.976h0.936c17.18,0,33.338-6.691,45.499-18.843
	c12.151-12.15,18.842-28.309,18.842-45.498c0-21.632-10.789-41.702-28.861-53.685l-17.015-11.287V66.572
	C184.25,56.389,175.961,48.105,165.775,48.105z"/>
<path style="fill:#FF4F4F;" d="M164.819,467.913c-36.43-0.507-66.65-30.524-67.396-66.913c-0.485-23.579,10.971-45.441,30.65-58.482
	l15.216-10.094V66.572c0-12.398,10.087-22.485,22.485-22.485c12.404,0,22.495,10.087,22.495,22.485v265.852l15.217,10.094
	c19.197,12.73,30.659,34.051,30.659,57.034c0,18.264-7.109,35.432-20.02,48.341c-12.921,12.911-30.088,20.02-48.341,20.02H164.819z"
	/>
<path d="M165.775,36.049c-16.831,0-30.523,13.692-30.523,30.523v261.539l-11.618,7.707c-21.986,14.572-34.788,39.001-34.245,65.347
	c0.833,40.67,34.608,74.217,75.291,74.785c0.047,0.001,0.093,0.001,0.141,0.001h0.965c20.399,0,39.583-7.944,54.024-22.374
	c14.428-14.428,22.374-33.615,22.374-54.024c0-25.684-12.805-49.51-34.253-63.732l-11.622-7.71V66.572
	C196.307,49.741,182.61,36.049,165.775,36.049z M196.823,352.567c15.82,10.489,25.264,28.055,25.264,46.986
	c0,15.043-5.855,29.184-16.485,39.813c-10.644,10.635-24.784,16.491-39.819,16.491h-0.893c-29.947-0.456-54.8-25.16-55.413-55.104
	c-0.401-19.425,9.04-37.439,25.259-48.187l16.116-10.691c2.806-1.862,4.493-5.004,4.493-8.372V66.572
	c0-5.751,4.678-10.429,10.429-10.429c5.756,0,10.439,4.678,10.439,10.429v266.931c0,3.368,1.687,6.511,4.493,8.372L196.823,352.567z
	"/>
<path d="M233.593,308.918V66.572c0-17.785-6.922-34.504-19.49-47.073C201.527,6.925,184.81,0,167.031,0
	c-17.78,0-34.498,6.925-47.076,19.503c-12.567,12.58-19.486,29.295-19.486,47.069v19.933c0,5.548,4.499,10.047,10.047,10.047
	c5.548,0,10.047-4.499,10.047-10.047V66.572c0-12.41,4.834-24.083,13.605-32.863c8.779-8.779,20.45-13.615,32.863-13.615
	c12.413,0,24.083,4.836,32.862,13.615c8.773,8.773,13.606,20.445,13.606,32.863v247.581c0,3.369,1.688,6.512,4.495,8.373
	c25.917,17.188,41.39,45.984,41.39,77.027c0,24.91-9.77,48.262-27.508,65.756c-17.423,17.183-40.401,26.598-64.84,26.597
	c-0.439,0-0.882-0.003-1.322-0.009c-49.179-0.684-90.01-41.237-91.018-90.402c-0.656-31.835,14.809-61.356,41.373-78.97
	c2.807-1.862,4.495-5.004,4.495-8.373V156.534c0-5.548-4.499-10.047-10.047-10.047s-10.047,4.499-10.047,10.047v152.382
	c-29.572,21.707-46.625,56.073-45.863,92.993c0.599,29.159,12.412,56.623,33.266,77.335c20.853,20.71,48.398,32.34,77.563,32.746
	c0.536,0.008,1.073,0.011,1.61,0.011c29.75,0,57.73-11.464,78.942-32.384c21.597-21.3,33.492-49.733,33.492-80.063
	C279.477,363.586,262.424,330.102,233.593,308.918z"/>
<path d="M291.563,200.409h17.001c1.527,9.378,5.184,18.209,10.736,25.92l-12.021,12.015c-3.924,3.922-3.926,10.284-0.004,14.21
	c1.962,1.963,4.534,2.945,7.106,2.945c2.571,0,5.141-0.981,7.102-2.941l12.025-12.018c7.71,5.553,16.538,9.211,25.912,10.738v16.991
	c0,5.548,4.499,10.047,10.047,10.047c5.548,0,10.047-4.499,10.047-10.047v-16.997c9.543-1.569,18.349-5.336,25.892-10.76
	l12.043,12.044c1.962,1.961,4.533,2.943,7.104,2.943c2.571,0,5.142-0.982,7.104-2.943c3.923-3.923,3.923-10.284,0-14.21
	L419.614,226.3c5.42-7.544,9.184-16.349,10.752-25.89h17.006c5.548,0,10.047-4.499,10.047-10.047
	c0-5.548-4.499-10.047-10.047-10.047h-17.004c-1.568-9.538-5.332-18.34-10.75-25.881l12.044-12.045
	c3.923-3.924,3.923-10.285,0-14.21c-3.924-3.922-10.286-3.922-14.21,0l-12.043,12.043c-7.544-5.423-16.351-9.189-25.893-10.758
	v-16.997c0-5.548-4.499-10.047-10.047-10.047c-5.548,0-10.047,4.499-10.047,10.047v16.992c-9.376,1.527-18.204,5.185-25.913,10.737
	l-12.024-12.018c-3.925-3.921-10.285-3.919-14.21,0.004c-3.922,3.924-3.92,10.286,0.004,14.21l12.019,12.013
	c-5.551,7.706-9.208,16.534-10.734,25.912h-17c-5.548,0-10.047,4.499-10.047,10.047
	C281.516,195.912,286.014,200.409,291.563,200.409z M340.033,160.925c7.866-7.866,18.319-12.198,29.436-12.198
	c22.959,0,41.635,18.678,41.635,41.634c0,22.963-18.678,41.645-41.635,41.645c-11.113,0-21.563-4.329-29.429-12.191
	c-0.002-0.002-0.003-0.004-0.005-0.006c-0.002-0.002-0.005-0.004-0.008-0.007c-7.863-7.865-12.193-18.321-12.193-29.442
	C327.833,179.236,332.165,168.783,340.033,160.925z"/>
<path d="M110.511,132.421c12.93,0,12.951-20.094,0-20.094C97.581,112.327,97.56,132.421,110.511,132.421z"/>
<g>
</g>
<g>
</g>
<g>
</g>
<g>
</g>
<g>
</g>
<g>
</g>
<g>
</g>
<g>
</g>
<g>
</g>
<g>
</g>
<g>
</g>
<g>
</g>
<g>
</g>
<g>
</g>
<g>
</g>
</svg>
